<?xml version="1.0" encoding="UTF-8"?>
<svg xmlns="http://www.w3.org/2000/svg" xmlns:xlink="http://www.w3.org/1999/xlink" width="375pt" height="374.999991pt" viewBox="0 0 375 374.999991" version="1.2">
<g id="surface1">
<path style=" stroke:none;fill-rule:nonzero;fill:rgb(25.489807%,31.759644%,39.219666%);fill-opacity:1;" d="M 186.710938 4.578125 C 183.679688 4.578125 180.648438 4.652344 177.621094 4.804688 C 174.59375 4.953125 171.574219 5.175781 168.554688 5.472656 C 165.539062 5.769531 162.53125 6.140625 159.535156 6.585938 C 156.535156 7.027344 153.550781 7.546875 150.578125 8.136719 C 147.605469 8.730469 144.648438 9.394531 141.707031 10.128906 C 138.765625 10.867188 135.847656 11.675781 132.945312 12.554688 C 130.046875 13.433594 127.167969 14.386719 124.316406 15.40625 C 121.460938 16.425781 118.632812 17.519531 115.832031 18.679688 C 113.03125 19.839844 110.261719 21.066406 107.523438 22.363281 C 104.78125 23.65625 102.074219 25.019531 99.402344 26.449219 C 96.730469 27.878906 94.09375 29.371094 91.492188 30.929688 C 88.894531 32.488281 86.332031 34.109375 83.8125 35.792969 C 81.292969 37.476562 78.816406 39.222656 76.378906 41.027344 C 73.945312 42.832031 71.558594 44.699219 69.214844 46.621094 C 66.871094 48.542969 64.578125 50.523438 62.332031 52.558594 C 60.085938 54.59375 57.890625 56.683594 55.746094 58.828125 C 53.601562 60.96875 51.515625 63.164062 49.476562 65.410156 C 47.441406 67.65625 45.464844 69.949219 43.539062 72.292969 C 41.617188 74.636719 39.753906 77.027344 37.949219 79.460938 C 36.140625 81.894531 34.398438 84.371094 32.714844 86.894531 C 31.03125 89.414062 29.410156 91.972656 27.851562 94.574219 C 26.292969 97.171875 24.796875 99.808594 23.371094 102.484375 C 21.941406 105.15625 20.578125 107.863281 19.28125 110.601562 C 17.984375 113.34375 16.757812 116.113281 15.597656 118.914062 C 14.4375 121.714844 13.347656 124.539062 12.328125 127.394531 C 11.304688 130.25 10.355469 133.125 9.476562 136.027344 C 8.59375 138.925781 7.785156 141.847656 7.050781 144.789062 C 6.3125 147.726562 5.648438 150.683594 5.058594 153.65625 C 4.46875 156.628906 3.949219 159.617188 3.503906 162.613281 C 3.058594 165.613281 2.6875 168.621094 2.390625 171.636719 C 2.09375 174.652344 1.871094 177.675781 1.722656 180.703125 C 1.574219 183.730469 1.5 186.757812 1.5 189.789062 C 1.5 192.820312 1.574219 195.851562 1.722656 198.878906 C 1.871094 201.90625 2.09375 204.925781 2.390625 207.945312 C 2.6875 210.960938 3.058594 213.96875 3.503906 216.964844 C 3.949219 219.964844 4.46875 222.949219 5.058594 225.921875 C 5.648438 228.894531 6.3125 231.851562 7.050781 234.792969 C 7.785156 237.734375 8.59375 240.652344 9.476562 243.554688 C 10.355469 246.453125 11.304688 249.332031 12.328125 252.183594 C 13.347656 255.039062 14.4375 257.867188 15.597656 260.667969 C 16.757812 263.46875 17.984375 266.238281 19.28125 268.976562 C 20.578125 271.71875 21.941406 274.425781 23.371094 277.097656 C 24.796875 279.769531 26.292969 282.40625 27.851562 285.007812 C 29.410156 287.605469 31.03125 290.167969 32.714844 292.6875 C 34.398438 295.207031 36.140625 297.683594 37.949219 300.121094 C 39.753906 302.554688 41.617188 304.941406 43.539062 307.285156 C 45.464844 309.628906 47.441406 311.921875 49.476562 314.167969 C 51.515625 316.414062 53.601562 318.609375 55.746094 320.753906 C 57.890625 322.898438 60.085938 324.984375 62.332031 327.019531 C 64.578125 329.058594 66.871094 331.035156 69.214844 332.960938 C 71.558594 334.882812 73.945312 336.746094 76.378906 338.550781 C 78.816406 340.359375 81.292969 342.101562 83.8125 343.785156 C 86.332031 345.46875 88.894531 347.089844 91.492188 348.648438 C 94.09375 350.207031 96.730469 351.703125 99.402344 353.128906 C 102.074219 354.558594 104.78125 355.921875 107.523438 357.21875 C 110.261719 358.515625 113.03125 359.742188 115.832031 360.902344 C 118.632812 362.0625 121.460938 363.152344 124.316406 364.171875 C 127.167969 365.195312 130.046875 366.144531 132.945312 367.023438 C 135.847656 367.90625 138.765625 368.714844 141.707031 369.449219 C 144.648438 370.1875 147.605469 370.851562 150.578125 371.441406 C 153.550781 372.03125 156.535156 372.550781 159.535156 372.996094 C 162.53125 373.441406 165.539062 373.8125 168.554688 374.109375 C 171.574219 374.40625 174.59375 374.628906 177.621094 374.777344 C 180.648438 374.925781 183.679688 375 186.710938 375 C 189.742188 375 192.769531 374.925781 195.796875 374.777344 C 198.824219 374.628906 201.847656 374.40625 204.863281 374.109375 C 207.878906 373.8125 210.886719 373.441406 213.886719 372.996094 C 216.882812 372.550781 219.871094 372.03125 222.84375 371.441406 C 225.816406 370.851562 228.773438 370.1875 231.710938 369.449219 C 234.652344 368.714844 237.574219 367.90625 240.472656 367.023438 C 243.375 366.144531 246.25 365.195312 249.105469 364.171875 C 251.960938 363.152344 254.785156 362.0625 257.585938 360.902344 C 260.386719 359.742188 263.15625 358.515625 265.898438 357.21875 C 268.636719 355.921875 271.34375 354.558594 274.015625 353.128906 C 276.691406 351.703125 279.328125 350.207031 281.925781 348.648438 C 284.527344 347.089844 287.085938 345.46875 289.605469 343.785156 C 292.128906 342.101562 294.605469 340.359375 297.039062 338.550781 C 299.472656 336.746094 301.863281 334.882812 304.207031 332.960938 C 306.550781 331.035156 308.84375 329.058594 311.089844 327.019531 C 313.335938 324.984375 315.53125 322.898438 317.671875 320.753906 C 319.816406 318.609375 321.90625 316.414062 323.941406 314.167969 C 325.976562 311.921875 327.957031 309.628906 329.878906 307.285156 C 331.800781 304.941406 333.667969 302.554688 335.472656 300.121094 C 337.277344 297.683594 339.023438 295.207031 340.707031 292.6875 C 342.390625 290.167969 344.011719 287.605469 345.570312 285.007812 C 347.128906 282.40625 348.621094 279.769531 350.050781 277.097656 C 351.480469 274.425781 352.84375 271.71875 354.136719 268.976562 C 355.433594 266.238281 356.660156 263.46875 357.820312 260.667969 C 358.980469 257.867188 360.070312 255.039062 361.09375 252.183594 C 362.113281 249.332031 363.066406 246.453125 363.945312 243.554688 C 364.824219 240.652344 365.632812 237.734375 366.371094 234.792969 C 367.105469 231.851562 367.769531 228.894531 368.359375 225.921875 C 368.953125 222.949219 369.46875 219.964844 369.914062 216.964844 C 370.359375 213.96875 370.730469 210.960938 371.027344 207.945312 C 371.324219 204.925781 371.546875 201.90625 371.695312 198.878906 C 371.847656 195.851562 371.921875 192.820312 371.921875 189.789062 C 371.921875 186.757812 371.847656 183.730469 371.695312 180.703125 C 371.546875 177.675781 371.324219 174.652344 371.027344 171.636719 C 370.730469 168.621094 370.359375 165.613281 369.914062 162.613281 C 369.46875 159.617188 368.953125 156.628906 368.359375 153.65625 C 367.769531 150.683594 367.105469 147.726562 366.371094 144.789062 C 365.632812 141.847656 364.824219 138.925781 363.945312 136.027344 C 363.066406 133.125 362.113281 130.25 361.09375 127.394531 C 360.070312 124.539062 358.980469 121.714844 357.820312 118.914062 C 356.660156 116.113281 355.433594 113.34375 354.136719 110.601562 C 352.84375 107.863281 351.480469 105.15625 350.050781 102.484375 C 348.621094 99.808594 347.128906 97.171875 345.570312 94.574219 C 344.011719 91.972656 342.390625 89.414062 340.707031 86.894531 C 339.023438 84.371094 337.277344 81.894531 335.472656 79.460938 C 333.667969 77.027344 331.800781 74.636719 329.878906 72.292969 C 327.957031 69.949219 325.976562 67.65625 323.941406 65.410156 C 321.90625 63.164062 319.816406 60.96875 317.671875 58.828125 C 315.53125 56.683594 313.335938 54.59375 311.089844 52.558594 C 308.84375 50.523438 306.550781 48.542969 304.207031 46.621094 C 301.863281 44.699219 299.472656 42.832031 297.039062 41.027344 C 294.605469 39.222656 292.128906 37.476562 289.605469 35.792969 C 287.085938 34.109375 284.527344 32.488281 281.925781 30.929688 C 279.328125 29.371094 276.691406 27.878906 274.015625 26.449219 C 271.34375 25.019531 268.636719 23.65625 265.898438 22.363281 C 263.15625 21.066406 260.386719 19.839844 257.585938 18.679688 C 254.785156 17.519531 251.960938 16.425781 249.105469 15.40625 C 246.25 14.386719 243.375 13.433594 240.472656 12.554688 C 237.574219 11.675781 234.652344 10.867188 231.710938 10.128906 C 228.773438 9.394531 225.816406 8.730469 222.84375 8.136719 C 219.871094 7.546875 216.882812 7.027344 213.886719 6.585938 C 210.886719 6.140625 207.878906 5.769531 204.863281 5.472656 C 201.847656 5.175781 198.824219 4.953125 195.796875 4.804688 C 192.769531 4.652344 189.742188 4.578125 186.710938 4.578125 Z M 186.710938 4.578125 "/>
</g>
</svg>
